<mxfile host="app.diagrams.net" modified="2024-05-16T16:52:43.643Z" agent="Mozilla/5.0 (Windows NT 10.0; Win64; x64) AppleWebKit/537.36 (KHTML, like Gecko) Chrome/124.0.0.0 Safari/537.36" version="24.4.3" etag="MfzUev34DtSbRTCLoE2c" type="github">
  <diagram name="Page-1" id="gONOkxp7X0acMdmyJL7o">
    <mxGraphModel>
      <root>
        <mxCell id="0" />
        <mxCell id="1" parent="0" />
      </root>
    </mxGraphModel>
  </diagram>
</mxfile>
